# xmcd
#
# Track frame offsets:
#	150
#	11370
#	22925
#	38015
#	46932
#	59805
#	69420
#	82350
#	93065
#	103400
#	114270
#	127497
#	140107
#	153217
#	166335
#	176687
#	191082
#	205412
#	217290
#	230627
#	242517
#	249922
#	263705
#	275937
#	291880
#	298715
#	311347
#	324022
#	337777
#
# Disc length: 4689 seconds
#
# Revision: 0
# Processed by: cddbd v1.4PL0 Copyright (c) Steve Scherf et al.
# Submitted via: audiograbber 1.80
#
DISCID=b3124f1d
DTITLE=dick curless - a tomstone every mile disc 5
DYEAR=1900
DGENRE=
TTITLE0=highwayman 1966
TTITLE1=the baron 1966
TTITLE2=memories, and old picture and a ring 1966
TTITLE3=a good job hunting and fishing 1966
TTITLE4=how do i say goodbye 1966
TTITLE5=i didn't know love was this way 1966
TTITLE6=house of memories 1966
TTITLE7=all of me belongs to you 1966
TTITLE8=my side of the night 1966
TTITLE9=the game of love and poker 1966
TTITLE10=try and leave me 1966
TTITLE11=(standing) on the outside looking in 1966
TTITLE12=hello honey 1967
TTITLE13=nobody 1967
TTITLE14=hobo 1967
TTITLE15=tears of saint ann 1967
TTITLE16=i went bad for a pretty girl 1967
TTITLE17=tornado tillie 1967
TTITLE18=life goes on 1967
TTITLE19=big foot 1967
TTITLE20=mumble boogie 1967
TTITLE21=you can't go back again 1968
TTITLE22=shoes 1968
TTITLE23=when dad was around 1968
TTITLE24=end of the road 1968
TTITLE25=bury the bottle with me 1968
TTITLE26=wrinkled, crinklet, wadded dollar bill 1968
TTITLE27=just for the record 1968
TTITLE28=i'm worried about me 1996
EXTD=
EXTT0=
EXTT1=
EXTT2=
EXTT3=
EXTT4=
EXTT5=
EXTT6=
EXTT7=
EXTT8=
EXTT9=
EXTT10=
EXTT11=
EXTT12=
EXTT13=
EXTT14=
EXTT15=
EXTT16=
EXTT17=
EXTT18=
EXTT19=
EXTT20=
EXTT21=
EXTT22=
EXTT23=
EXTT24=
EXTT25=
EXTT26=
EXTT27=
EXTT28=
PLAYORDER=
